<svg width="697" height="41" viewBox="0 0 697 41" fill="none" xmlns="http://www.w3.org/2000/svg">
<g clip-path="url(#clip0_462_2433)">
<path d="M496.982 2.96056H502.656V17.3488H521.654V2.96056H527.379V38.5214H521.654V22.2616H502.656V38.5214H496.982V2.96056Z" fill="white"/>
<path d="M553.318 2.14893C565.878 2.14893 572.365 10.0987 572.365 20.7383C572.365 31.3779 565.884 39.3277 553.318 39.3277C540.752 39.3277 534.27 31.3779 534.27 20.7383C534.27 10.0987 540.752 2.14893 553.318 2.14893ZM563.04 10.9098C560.759 8.42606 557.519 7.21011 553.312 7.21011C544.805 7.21011 540.14 12.5825 540.14 20.7369C540.14 28.8912 544.799 34.2132 553.312 34.2132C561.825 34.2132 566.484 28.897 566.484 20.7369C566.484 16.6352 565.319 13.3936 563.04 10.9098Z" fill="white"/>
<path d="M578.696 2.96056H584.371V25.3476C584.371 31.4764 588.523 34.2137 594.551 34.2137C600.578 34.2137 604.682 31.4807 604.682 25.3476V2.96056H610.407V25.9614C610.506 36.1414 601.794 39.3829 594.551 39.3325C587.357 39.3815 578.645 36.1414 578.694 25.9614V2.96056H578.696Z" fill="white"/>
<path d="M622.819 25.8061C622.819 28.9469 623.934 31.1785 626.109 32.442C628.29 33.7069 631.072 34.3135 634.418 34.3135C641.005 34.3135 644.295 32.2878 644.295 28.2841C644.295 25.6505 642.827 24.387 637.759 23.828L628.439 22.8181C620.892 22.007 617.093 19.4224 617.093 13.5976C617.093 6.50937 622.614 2.14693 633.098 2.14693C638.112 2.14693 642.063 3.21305 644.952 5.33808C647.839 7.41413 649.309 10.8099 649.309 15.5181H643.484C643.484 9.94689 639.889 7.15913 632.696 7.15913C626.464 7.15913 622.713 9.43976 622.713 13.138C622.713 16.2298 625.197 17.3449 630.415 17.8967L639.332 18.8576C646.78 19.6687 649.921 22.5069 649.921 28.1775C649.921 32.2302 648.502 35.1174 645.664 36.79C642.876 38.4627 639.077 39.3242 634.318 39.3242C623.121 39.3242 616.894 35.1721 616.894 25.7975H622.819V25.8032V25.8061Z" fill="white"/>
<path d="M657.012 2.96056H684.064V7.87479H662.687V18.16H681.077V23.0742H662.687V33.6086H684.064V38.5228H657.012V2.96056Z" fill="white"/>
<path d="M396.222 1.9182C383.516 1.9182 373.104 9.74553 372.11 19.695C371.808 16.671 370.485 13.4697 366.185 10.2051C362.004 7.19261 356.562 5.56029 350.843 6.16539C344.707 6.8065 339.21 10.0092 337.676 15.2418C336.764 18.1203 337.464 21.1948 339.765 23.2521L339.21 23.9235C337.021 22.83 335.587 20.6646 335.119 18.5511C334.224 14.4926 336.014 10.7555 339.337 7.87262C345.217 2.7466 354.421 1.78565 361.963 4.34866C360.72 3.55628 358.221 1.80006 353.609 1.57387C343.837 1.19497 333.982 6.94481 332.562 15.347C331.922 19.6187 333.456 23.997 337.803 26.6666C340.275 28.1534 343.206 28.8046 346.003 28.2341L346.266 29.012C345.161 29.4774 343.871 29.7036 342.66 29.7626C339.719 29.8692 336.907 28.9083 334.606 27.1996C331.666 25.0645 329.876 22.1802 329.237 18.9775C328.214 12.6774 331.794 6.59039 337.545 2.63855C336.437 3.05059 335.417 3.5606 334.445 4.12247C331.982 5.54444 329.958 7.63778 328.758 10.2152C327.426 13.0779 326.897 16.1869 327.319 19.2974C327.83 22.7147 329.62 25.7042 332.432 28.2672C336.522 31.8978 343.041 33.2866 348.539 31.3647C351.083 30.4196 353.205 28.6619 354.097 26.4793H355.166C355.099 27.1492 354.9 27.8263 354.675 28.4819C353.908 30.2971 352.374 31.5794 350.457 32.7535C347.899 34.1424 345.215 34.6754 342.275 34.6754C338.823 34.6754 335.499 33.7145 332.432 32.0058C327.191 29.0164 324.839 24.53 323.817 19.6187C323.752 21.5694 323.713 25.2893 326.198 28.502C330.627 34.4132 338.997 37.8882 347.515 36.0643C352.756 34.8901 357.103 31.8992 358.38 27.3077C359.291 24.432 358.513 21.4253 356.245 19.342L356.264 19.3176L356.842 18.6174C358.598 19.5337 359.849 21.2034 360.554 22.8228C361.321 24.4248 361.194 26.2401 360.938 27.9488C360.554 29.9773 359.403 31.7926 357.997 33.5013C352.373 39.8014 342.147 40.9771 334.093 38.1994C334.221 38.306 336.812 40.5593 342.258 40.8964C352.268 41.549 361.943 35.7761 363.493 27.3062C364.26 22.9279 362.727 18.5497 358.252 15.88C355.792 14.4004 352.876 13.7478 350.089 14.3039L349.849 13.5792H349.846L349.84 13.5619C353.406 11.9628 358.438 13.0908 361.449 15.3441C364.39 17.5873 366.179 20.3635 366.819 23.5662C367.97 29.973 364.39 36.0614 358.51 39.9052C359.65 39.5508 364.081 38.3478 367.043 32.8529C368.562 29.8476 369.186 26.547 368.736 23.2463C368.225 19.829 366.435 16.8395 363.623 14.2765C359.533 10.646 353.014 9.25713 347.516 11.179C345.008 12.1097 342.912 13.889 341.998 16.0212H340.919C341.026 15.0401 341.422 14.0503 341.893 13.209C343.427 10.5394 346.623 8.9373 350.075 8.18957C354.933 7.22862 359.406 8.18957 363.625 10.5394C368.365 13.2436 370.645 17.1709 371.796 21.5305C371.9 21.9584 372.067 22.7392 372.263 23.9753H372.269C373.927 33.3629 384.016 40.5852 396.222 40.5852C409.586 40.5852 420.418 31.928 420.418 21.2481C420.418 10.5682 409.584 1.911 396.222 1.911V1.9182ZM396.222 34.2389C384.375 41.9971 374.77 32.7089 382.793 21.2539C374.771 9.7974 384.375 0.510634 396.222 8.26881C408.069 0.510634 417.673 9.79884 409.651 21.2539C417.673 32.7103 408.069 41.9971 396.222 34.2389Z" fill="white"/>
<path d="M25.9431 17.4249C15.0284 17.4249 11.3704 16.9134 11.3704 14.6573C11.3704 12.6677 15.2848 11.7874 21.4424 11.7874C27.1879 11.7874 30.5807 13.1316 30.8833 15.5289H42.7489C42.7489 6.05052 34.6392 0.917297 21.8544 0.917297C9.06961 0.917297 0.886427 5.01898 0.886427 13.6286C0.886427 20.2674 6.84517 23.0983 18.0337 23.0983C29.2221 23.0983 33.2388 23.6717 33.2388 25.8025C33.2388 27.9333 30.088 28.6004 23.916 28.6004C17.7441 28.6004 13.4753 27.2778 12.9393 25.0851H0.490234C0.490234 34.1096 9.58394 39.5584 22.6799 39.5584C36.466 39.5584 43.3108 35.7924 43.3108 26.6151C43.3108 19.9057 37.7554 17.4263 25.9431 17.4263V17.4249Z" fill="white"/>
<path d="M83.9804 18.21C83.9804 26.9608 78.9091 28.3453 70.9406 28.3453C62.9721 28.3453 57.8619 26.9608 57.8619 18.21V2.98035H47.8015V20.7024C47.8015 36.4305 58.7076 39.5324 70.942 39.5324C82.4921 39.5324 94.0422 36.4305 94.0422 20.7024V2.98035H83.9818V18.21H83.9804Z" fill="white"/>
<path d="M127.704 2.98035H99.7746V38.4245H109.835V29.2861H127.703C135.752 29.2861 142.19 28.1782 142.19 16.8255C142.19 5.47276 135.752 2.98035 127.703 2.98035H127.704ZM128.113 19.5945H109.835V14.0565H128.113C129.722 14.0565 132.13 14.5002 132.13 16.8255C132.13 19.1508 129.722 19.5945 128.113 19.5945Z" fill="white"/>
<path d="M157.351 23.4714H182.303V17.9334H157.351V13.5018H187.857V2.98035H147.291V38.4245H187.936V27.9016H157.351V23.4714Z" fill="white"/>
<path d="M237.596 15.1644C237.596 6.02599 231.962 2.98035 224.678 2.98035H193.568V38.4245H203.629V28.4563H218.559C224.997 28.4563 226.62 29.1766 226.62 32.4989V38.4245H236.68V30.8377C236.68 27.3095 235.353 25.7564 231.024 25.1283C234.771 24.1976 237.593 21.7239 237.593 15.1644H237.596ZM223.518 19.207H203.63V14.0565H223.518C225.127 14.0565 227.534 14.6097 227.534 16.5489C227.534 18.6537 225.127 19.207 223.518 19.207Z" fill="white"/>
<path d="M274.962 20.48C280.463 19.7006 283.673 17.577 283.673 11.8675C283.673 5.48085 278.858 2.97835 268.46 2.97835H243.107V38.4225H270.473C279.326 38.4225 284.961 35.2659 284.961 27.8449C284.961 22.108 280.827 20.7494 274.962 20.4785V20.48ZM253.167 13.2808H267.823C270.651 13.2808 272.807 14.1668 272.807 15.9389C272.807 17.711 270.641 18.6532 267.823 18.6532H253.167V13.2808ZM269.513 28.012H253.167V22.6396H269.513C272.33 22.6396 274.497 23.6366 274.497 25.2991C274.497 26.9617 272.331 28.012 269.513 28.012Z" fill="white"/>
<path d="M299.336 2.98035H289.275V38.4245H293.252V38.4475H322.791V27.9247H299.336V2.98035Z" fill="white"/>
<path d="M472.352 2.98035L453.406 29.8926L434.522 2.98035H424.461V38.4245H434.522V20.3105L447.4 38.4245H459.473L472.352 20.2428V38.4245H482.412V2.98035H472.352Z" fill="white"/>
<path d="M687.305 7.87936V3.81802H685.453V2.96368H690.179V3.81802H688.328V7.87936H687.305Z" fill="white"/>
<path d="M694.963 2.96169H696.49V7.87736H695.474V3.94857L693.817 7.87736H692.967L691.714 5.03341V7.87736H690.691V2.96169H691.692L693.378 6.72192L694.963 2.96169Z" fill="white"/>
</g>
<defs>
<clipPath id="clip0_462_2433">
<rect width="696" height="40.0313" fill="white" transform="translate(0.490234 0.914871)"/>
</clipPath>
</defs>
</svg>
