<svg width="240" height="15" viewBox="0 0 240 15" fill="none" xmlns="http://www.w3.org/2000/svg">
<g clip-path="url(#clip0_6519_2573)">
<path d="M171.127 1.01941H173.081V5.97377H179.622V1.01941H181.594V13.2642H179.622V7.6654H173.081V13.2642H171.127V1.01941Z" fill="black"/>
<path d="M190.526 0.739944C194.85 0.739944 197.084 3.47732 197.084 7.14088C197.084 10.8044 194.852 13.5418 190.526 13.5418C186.199 13.5418 183.967 10.8044 183.967 7.14088C183.967 3.47732 186.199 0.739944 190.526 0.739944ZM193.873 3.75661C193.088 2.90137 191.972 2.48268 190.524 2.48268C187.594 2.48268 185.988 4.33256 185.988 7.14038C185.988 9.9482 187.592 11.7807 190.524 11.7807C193.455 11.7807 195.059 9.95018 195.059 7.14038C195.059 5.72804 194.658 4.61186 193.873 3.75661Z" fill="black"/>
<path d="M199.264 1.01941H201.218V8.72801C201.218 10.8383 202.648 11.7809 204.723 11.7809C206.799 11.7809 208.212 10.8398 208.212 8.72801V1.01941H210.183V8.93934C210.217 12.4446 207.218 13.5608 204.723 13.5435C202.246 13.5603 199.247 12.4446 199.263 8.93934V1.01941H199.264Z" fill="black"/>
<path d="M214.457 8.8859C214.457 9.96735 214.841 10.7358 215.59 11.1708C216.341 11.6064 217.299 11.8153 218.451 11.8153C220.719 11.8153 221.852 11.1178 221.852 9.73916C221.852 8.83232 221.346 8.39726 219.601 8.20478L216.392 7.85703C213.794 7.57773 212.486 6.68776 212.486 4.68211C212.486 2.24139 214.386 0.739258 217.996 0.739258C219.723 0.739258 221.084 1.10636 222.078 1.83808C223.072 2.55293 223.578 3.72219 223.578 5.34338H221.573C221.573 3.42504 220.335 2.46512 217.858 2.46512C215.712 2.46512 214.421 3.25042 214.421 4.52386C214.421 5.58845 215.276 5.97241 217.073 6.16241L220.143 6.4933C222.708 6.77259 223.789 7.74987 223.789 9.70245C223.789 11.0979 223.301 12.0921 222.323 12.668C221.363 13.244 220.055 13.5406 218.417 13.5406C214.561 13.5406 212.417 12.1109 212.417 8.88292H214.457V8.88491V8.8859Z" fill="black"/>
<path d="M226.231 1.01941H235.546V2.71154H228.185V6.25306H234.517V7.94519H228.185V11.5725H235.546V13.2647H226.231V1.01941Z" fill="black"/>
<path d="M136.432 0.660492C132.057 0.660492 128.472 3.3557 128.13 6.78163C128.026 5.74036 127.57 4.63807 126.089 3.51395C124.65 2.47664 122.776 1.91458 120.807 2.12294C118.694 2.34369 116.801 3.44648 116.273 5.24825C115.959 6.23942 116.2 7.29805 116.992 8.00646L116.801 8.23763C116.047 7.86111 115.554 7.1155 115.392 6.38775C115.084 4.99029 115.701 3.70345 116.845 2.71079C118.869 0.945738 122.039 0.614852 124.636 1.49738C124.208 1.22454 123.347 0.619813 121.759 0.541928C118.394 0.411459 115.001 2.39132 114.512 5.28446C114.292 6.75534 114.82 8.26293 116.317 9.18217C117.168 9.69413 118.177 9.91835 119.14 9.7219L119.231 9.98979C118.85 10.15 118.406 10.2279 117.989 10.2482C116.976 10.285 116.008 9.95407 115.216 9.36572C114.203 8.63053 113.587 7.63737 113.367 6.53459C113.015 4.36522 114.247 2.26928 116.228 0.908532C115.846 1.05041 115.495 1.22602 115.16 1.4195C114.312 1.90913 113.615 2.62993 113.202 3.51742C112.743 4.50313 112.561 5.57368 112.707 6.64472C112.883 7.82142 113.499 8.85079 114.467 9.73332C115.876 10.9834 118.12 11.4617 120.013 10.7999C120.89 10.4745 121.62 9.86924 121.927 9.11768H122.295C122.272 9.34836 122.204 9.58151 122.126 9.80723C121.862 10.4323 121.334 10.8738 120.674 11.2781C119.793 11.7563 118.869 11.9399 117.856 11.9399C116.668 11.9399 115.523 11.609 114.467 11.0206C112.663 9.99128 111.853 8.44648 111.501 6.75534C111.478 7.42704 111.465 8.70792 112.321 9.81418C113.846 11.8496 116.728 13.0461 119.661 12.4181C121.465 12.0138 122.962 10.9839 123.402 9.40293C123.716 8.41275 123.448 7.37743 122.667 6.66009L122.673 6.65166L122.872 6.41057C123.477 6.72607 123.908 7.30103 124.151 7.85863C124.415 8.41027 124.371 9.03533 124.283 9.62368C124.151 10.3222 123.754 10.9472 123.27 11.5356C121.334 13.7049 117.812 14.1097 115.039 13.1533C115.083 13.19 115.975 13.9659 117.851 14.082C121.297 14.3067 124.629 12.3189 125.163 9.40243C125.427 7.89484 124.899 6.38725 123.358 5.46801C122.511 4.95854 121.507 4.73381 120.547 4.9253L120.464 4.67577H120.463L120.461 4.66982C121.689 4.11917 123.422 4.5076 124.459 5.28347C125.471 6.05587 126.087 7.01182 126.308 8.1146C126.704 10.3207 125.471 12.4171 123.447 13.7407C123.839 13.6186 125.365 13.2044 126.385 11.3123C126.908 10.2775 127.123 9.141 126.968 8.00447C126.792 6.82777 126.176 5.7984 125.207 4.91587C123.799 3.66575 121.554 3.18753 119.661 3.8493C118.798 4.16977 118.076 4.78243 117.761 5.51663H117.39C117.426 5.1788 117.563 4.83799 117.725 4.54828C118.253 3.62904 119.354 3.0774 120.542 2.81993C122.215 2.48905 123.755 2.81993 125.208 3.62904C126.84 4.56018 127.625 5.9125 128.022 7.41364C128.057 7.56098 128.115 7.82985 128.182 8.25549H128.184C128.755 11.488 132.229 13.9748 136.432 13.9748C141.034 13.9748 144.764 10.9939 144.764 7.31641C144.764 3.63896 141.033 0.658011 136.432 0.658011V0.660492ZM136.432 11.7896C132.353 14.461 129.046 11.2627 131.808 7.31839C129.046 3.37356 132.353 0.175821 136.432 2.84722C140.512 0.175821 143.818 3.37405 141.056 7.31839C143.818 11.2632 140.512 14.461 136.432 11.7896Z" fill="black"/>
<path d="M8.93307 5.99995C5.17476 5.99995 3.91521 5.82384 3.91521 5.04698C3.91521 4.36189 5.26306 4.05879 7.38331 4.05879C9.36168 4.05879 10.53 4.52163 10.6341 5.34711H14.7198C14.7198 2.08339 11.9274 0.315857 7.52519 0.315857C3.12297 0.315857 0.305226 1.7282 0.305226 4.69278C0.305226 6.97872 2.35702 7.95352 6.20958 7.95352C10.0621 7.95352 11.4452 8.15096 11.4452 8.88466C11.4452 9.61837 10.3603 9.84805 8.23508 9.84805C6.10987 9.84805 4.63998 9.39265 4.45544 8.63761H0.168804C0.168804 11.7451 3.30007 13.6212 7.80944 13.6212C12.5564 13.6212 14.9133 12.3245 14.9133 9.16445C14.9133 6.8542 13.0004 6.00045 8.93307 6.00045V5.99995Z" fill="black"/>
<path d="M28.9172 6.2703C28.9172 9.28349 27.171 9.76023 24.4272 9.76023C21.6834 9.76023 19.9238 9.28349 19.9238 6.2703V1.02623H16.4596V7.12852C16.4596 12.5442 20.215 13.6123 24.4277 13.6123C28.4048 13.6123 32.3818 12.5442 32.3818 7.12852V1.02623H28.9177V6.2703H28.9172Z" fill="black"/>
<path d="M43.9727 1.02623H34.3557V13.2308H37.8198V10.0842H43.9722C46.7438 10.0842 48.9608 9.70269 48.9608 5.79357C48.9608 1.88445 46.7438 1.02623 43.9722 1.02623H43.9727ZM44.1136 6.74704H37.8198V4.8401H44.1136C44.6677 4.8401 45.4967 4.99289 45.4967 5.79357C45.4967 6.59424 44.6677 6.74704 44.1136 6.74704Z" fill="black"/>
<path d="M54.1812 8.08199H62.7728V6.17505H54.1812V4.64911H64.6852V1.02623H50.717V13.2308H64.7125V9.60744H54.1812V8.08199Z" fill="black"/>
<path d="M81.8122 5.22159C81.8122 2.07494 79.8721 1.02623 77.3639 1.02623H66.652V13.2308H70.1161V9.79843H75.257C77.474 9.79843 78.0326 10.0465 78.0326 11.1904V13.2308H81.4967V10.6185C81.4967 9.40355 81.0398 8.86877 79.5491 8.65248C80.8394 8.33201 81.8112 7.48024 81.8112 5.22159H81.8122ZM76.9645 6.61359H70.1166V4.8401H76.9645C77.5186 4.8401 78.3476 5.0306 78.3476 5.69832C78.3476 6.42309 77.5186 6.61359 76.9645 6.61359Z" fill="black"/>
<path d="M94.6785 7.05193C96.5725 6.78355 97.6778 6.05233 97.6778 4.08636C97.6778 1.88724 96.0199 1.02554 92.4397 1.02554H83.7096V13.2301H93.1327C96.1811 13.2301 98.1213 12.1432 98.1213 9.5879C98.1213 7.61251 96.698 7.1447 94.6785 7.05144V7.05193ZM87.1738 4.57302H92.2204C93.1942 4.57302 93.9363 4.87811 93.9363 5.48829C93.9363 6.09847 93.1907 6.4229 92.2204 6.4229H87.1738V4.57302ZM92.8023 9.64545H87.1738V7.79556H92.8023C93.7721 7.79556 94.5182 8.13885 94.5182 8.71133C94.5182 9.2838 93.7726 9.64545 92.8023 9.64545Z" fill="black"/>
<path d="M103.071 1.02623H99.607V13.2308H100.976V13.2387H111.147V9.61538H103.071V1.02623Z" fill="black"/>
<path d="M162.646 1.02623L156.123 10.293L149.62 1.02623H146.156V13.2308H149.62V6.99359L154.055 13.2308H158.212L162.646 6.97027V13.2308H166.11V1.02623H162.646Z" fill="black"/>
<path d="M236.662 2.71312V1.31467H236.024V1.02049H237.651V1.31467H237.014V2.71312H236.662Z" fill="black"/>
<path d="M239.299 1.01981H239.824V2.71243H239.475V1.35962L238.904 2.71243H238.611L238.18 1.73317V2.71243H237.828V1.01981H238.172L238.753 2.31458L239.299 1.01981Z" fill="black"/>
</g>
<defs>
<clipPath id="clip0_6519_2573">
<rect width="239.656" height="13.7841" fill="white" transform="translate(0.168804 0.315018)"/>
</clipPath>
</defs>
</svg>
